<svg
  width="512"
  height="192"
  viewBox="0 0 512 192"
  fill="none"
  xmlns="http://www.w3.org/2000/svg"
>
<g clip-path="url(#clip0_429_920)">
<path
      d="M511.8 68.5899C511.8 68.5899 443.13 -0.0199956 442.41 4.3717e-06H65.8L47.16 113.68H2.59998C-4.77002 143.98 3.83993 155.04 24.8699 174.15C49.5599 205.49 107.25 191.28 112.76 149.99C120.22 161.49 131.59 170.11 140.98 180.05C162.8 198.77 202.72 192.68 221.37 171.11L239.19 190.11H287.87L292.17 171.11L310.65 190.11H353.65L355.76 178.11L366.58 190.11H415.29L417.9 175.11L432.73 190.11H490.11L455.22 129.39L511.8 68.5899Z"
      fill="black"
    />
<path
      d="M124.1 42.6701C122.332 41.9492 120.796 40.7554 119.66 39.2199C118.554 37.6638 117.967 35.7988 117.98 33.8898H125.18C125.195 34.5028 125.332 35.1071 125.583 35.6667C125.834 36.2263 126.193 36.7305 126.64 37.1501C127.654 37.9965 128.952 38.4253 130.27 38.3498C131.596 38.4294 132.906 38.0283 133.96 37.2199C134.397 36.8656 134.747 36.4148 134.981 35.903C135.215 35.3913 135.328 34.8327 135.31 34.2702C135.34 33.3639 135.009 32.4824 134.39 31.82C133.75 31.1551 132.972 30.6397 132.11 30.3103C130.879 29.8377 129.624 29.4302 128.35 29.09C126.537 28.5845 124.762 27.9496 123.04 27.1901C121.658 26.5501 120.455 25.5778 119.54 24.3601C118.493 22.8878 117.975 21.1043 118.07 19.3C118.028 17.4589 118.548 15.6487 119.56 14.1101C120.597 12.6025 122.049 11.4284 123.74 10.7302C125.682 9.91222 127.773 9.51007 129.88 9.55C132.894 9.41248 135.866 10.3008 138.31 12.07C139.378 12.9069 140.251 13.967 140.868 15.176C141.484 16.385 141.83 17.7138 141.88 19.07H134.49C134.465 18.518 134.322 17.9778 134.07 17.486C133.818 16.9943 133.464 16.5624 133.03 16.2199C131.991 15.4276 130.705 15.0276 129.4 15.09C128.266 15.0298 127.15 15.3854 126.26 16.09C125.856 16.4564 125.54 16.9091 125.336 17.4148C125.131 17.9204 125.044 18.4658 125.08 19.01C125.065 19.4246 125.137 19.8378 125.29 20.2233C125.443 20.6089 125.675 20.9587 125.97 21.2502C126.606 21.8694 127.357 22.3585 128.18 22.6901C129.06 23.0601 130.3 23.4802 131.9 23.9602C133.72 24.4722 135.502 25.1137 137.23 25.8801C138.628 26.5399 139.846 27.5278 140.78 28.76C141.821 30.2133 142.346 31.9736 142.27 33.76C142.279 35.5247 141.794 37.2567 140.87 38.76C139.892 40.3509 138.475 41.6253 136.79 42.4299C134.803 43.39 132.616 43.8599 130.41 43.8C128.252 43.8562 126.105 43.4718 124.1 42.6701Z"
      fill="#FFFF00"
    />
<path
      d="M196.03 10.0298V43.54H189.3V29.3198H174.95V43.5796H168.23V10.0698H174.95V23.8496H189.3V10.0698L196.03 10.0298Z"
      fill="#FFFF00"
    />
<path
      d="M229.72 41.6597C227.128 40.2173 224.973 38.1036 223.48 35.54C221.972 32.8414 221.18 29.8014 221.18 26.71C221.18 23.6185 221.972 20.5785 223.48 17.8799C224.973 15.3164 227.128 13.2022 229.72 11.7598C232.372 10.3068 235.346 9.54541 238.37 9.54541C241.394 9.54541 244.368 10.3068 247.02 11.7598C249.602 13.2011 251.745 15.3164 253.22 17.8799C254.715 20.5827 255.5 23.6211 255.5 26.71C255.5 29.7989 254.715 32.8372 253.22 35.54C251.741 38.1068 249.59 40.222 247 41.6597C244.351 43.1091 241.38 43.8691 238.36 43.8691C235.34 43.8691 232.369 43.1091 229.72 41.6597ZM243.72 36.5C245.271 35.5697 246.521 34.212 247.32 32.5898C248.176 30.7442 248.619 28.7341 248.619 26.6997C248.619 24.6653 248.176 22.6557 247.32 20.8101C246.516 19.2013 245.267 17.8577 243.72 16.9399C242.078 16.0602 240.243 15.5996 238.38 15.5996C236.517 15.5996 234.682 16.0602 233.04 16.9399C231.48 17.8505 230.219 19.1953 229.41 20.8101C228.56 22.6573 228.12 24.6663 228.12 26.6997C228.12 28.7331 228.56 30.7426 229.41 32.5898C230.215 34.2181 231.476 35.5769 233.04 36.5C234.676 37.399 236.513 37.8701 238.38 37.8701C240.247 37.8701 242.084 37.399 243.72 36.5Z"
      fill="#FFFF00"
    />
<path
      d="M309.3 43.54H302.59L287.37 20.54V43.54H280.65V9.97998H287.37L302.59 32.98V9.97998H309.3V43.54Z"
      fill="#FFFF00"
    />
<path
      d="M342.8 15.46V23.8599H354.08V29.1797H342.8V38.0601H355.52V43.54H336.08V9.97998H355.52V15.46H342.8Z"
      fill="#FFFF00"
    />
<path
      d="M410.44 43.54H403.72L388.5 20.54V43.54H381.8V9.97998H388.52L403.74 32.98V9.97998H410.46L410.44 43.54Z"
      fill="#FFFF00"
    />
<path
      d="M42.3401 166.12C31.1801 166.12 22.1501 163.24 15.4801 157.58C8.5801 151.71 5.08008 143.26 5.08008 132.46C5.12297 129.21 5.45764 125.97 6.08008 122.78L6.82007 118.68H45.1001L43.99 124.6C43.7692 125.72 43.6521 126.858 43.64 128C43.64 130.63 44.1601 130.63 45.7001 130.63C46.8901 130.63 49.09 130.63 50.29 124.9L62.8101 53.5898H101.19L88.3501 126.7C86.1301 139.27 80.8801 149.09 72.7301 155.88C64.5801 162.67 54.3401 166.12 42.3401 166.12Z"
      fill="#FFFF00"
    />
<path
      d="M154.08 166.12C141.86 166.12 131.82 162.8 124.25 156.26C116.46 149.54 112.51 139.93 112.51 127.71C112.506 123.967 112.872 120.232 113.6 116.56L124.69 53.5601H162.9L151.66 118.32C151.439 119.642 151.322 120.979 151.31 122.32C151.31 124.83 151.85 126.6 152.97 127.75C154.32 129.13 156.97 129.42 158.97 129.42C162.87 129.42 165.85 128.42 168.07 126.31C170.46 124.07 171.99 120.87 172.77 116.54L183.86 53.54H222.24L210.84 118.3C209.08 128.64 205.41 137.52 199.95 144.66C194.679 151.661 187.723 157.217 179.73 160.81C171.652 164.373 162.909 166.183 154.08 166.12Z"
      fill="#FFFF00"
    />
<path
      d="M329.49 165.11H293.8L271.8 119.48L263.69 165.11H225.17L244.94 53.5898H280.5L302.63 99.8101L310.74 53.5898H349.12L329.49 165.11Z"
      fill="#FFFF00"
    />
<path
      d="M461.52 165.11H415.8L397.18 130.55L391.18 165.11H352.64L372.42 53.5898H410.8L405.04 86.0898L434.14 53.5898H480.39L429.15 108.68L461.52 165.11Z"
      fill="#FFFF00"
    />
<path
      d="M95.1901 58.5898L83.38 125.84C81.38 137.26 76.7468 145.993 69.4801 152.04C62.2134 158.087 53.1668 161.113 42.3401 161.12C32.3401 161.12 24.4668 158.67 18.7201 153.77C12.9734 148.87 10.0934 141.767 10.0801 132.46C10.1049 129.513 10.396 126.574 10.9501 123.68H39.03C38.7491 125.103 38.6018 126.549 38.5901 128C38.5901 133.093 40.9434 135.637 45.65 135.63C50.6434 135.63 53.81 132.367 55.15 125.84L66.9601 58.5898H95.1901Z"
      fill="#0066FF"
    />
<path
      d="M156.96 58.5898L146.74 117.48C146.461 119.099 146.317 120.737 146.31 122.38C146.31 126.22 147.34 129.197 149.4 131.31C151.46 133.423 154.653 134.48 158.98 134.48C164.16 134.48 168.337 132.99 171.51 130.01C174.683 127.03 176.747 122.853 177.7 117.48L188.07 58.5898H216.29L205.92 117.48C204.293 127.08 200.983 135.146 195.99 141.68C191.234 148.032 184.94 153.07 177.7 156.32C170.26 159.59 162.207 161.237 154.08 161.15C143.04 161.15 134.183 158.27 127.51 152.51C120.837 146.75 117.503 138.493 117.51 127.74C117.506 124.305 117.841 120.879 118.51 117.51L128.88 58.6196L156.96 58.5898Z"
      fill="#0066FF"
    />
<path
      d="M325.3 160.11H296.93L269.57 103.37L259.49 160.11H231.12L249.12 58.5898H277.34L304.85 116.04L314.93 58.5898H343.15L325.3 160.11Z"
      fill="#0066FF"
    />
<path
      d="M422.93 107.98L452.88 160.11H418.8L394.8 115.47L387.03 160.11H358.66L376.66 58.5898H404.8L397.03 102.51L436.34 58.5898H468.88L422.93 107.98Z"
      fill="#0066FF"
    />
</g>
<defs>
<clipPath id="clip0_429_920">
<rect width="511.82" height="191.21" fill="white" />
</clipPath>
</defs>
</svg>
